PathFileType	4	(X/Y/Z)	C:/Users/beibeiliu/ov580/test_trc\sequence.15_training_dense_left.trc
DataRate	CameraRate	NumFrames	NumMarkers	Units	OrigDataRate	OrigDataStartFrame	OrigNumFrames
120	120	11	19	mm	120	44	348
Frame#	Time	ThumbCMC			ThumbMCP			ThumbIP			ThumbTip			IndexMCP			IndexPIP			IndexTip			MiddleMCP			MiddlePIP			MiddleTip			RingMCP			RingPIP			RingTip			PinkyMCP			PinkyPIP			PinkyTip			BackHand1			BackHand2			BackHand3	
		X0	Y0	Z0	X1	Y1	Z1	X2	Y2	Z2	X3	Y3	Z3	X4	Y4	Z4	X5	Y5	Z5	X6	Y6	Z6	X7	Y7	Z7	X8	Y8	Z8	X9	Y9	Z9	X10	Y10	Z10	X11	Y11	Z11	X12	Y12	Z12	X13	Y13	Z13	X14	Y14	Z14	X15	Y15	Z15	X16	Y16	Z16	X17	Y17	Z17	X18	Y18	Z18	
43	0.358333	-172.619	-13.2734	-24.3629	-175.761	-29.8597	-50.1807	-182.573	-36.0009	-71.3024	-202.699	-36.2848	-91.5245	-176.183	21.1856	-81.3645	-169.615	25.339	-98.8451	-170.317	34.183	-117.832	-200.836	5.50718	-88.1508	-202.032	-25.7135	-92.12	-199.402	-24.9403	-61.6137	-216.928	1.84352	-85.3164	-217.377	-22.9929	-85.7305	-212.054	-29.0197	-56.2134	-232.305	20.9722	-70.8066	-237.825	23.5441	-85.1394	-240.516	30.9329	-98.9143	-209.807	24.6029	-37.3433	-213.787	22.0336	-9.34277	-184.287	18.123	-22.2293	
44	0.366667	-176.172	-10.1228	-22.3248	-174.253	-31.9014	-50.7407	-183.508	-36.2994	-77.0365	-204.138	-33.6793	-88.1117	-173.758	20.9489	-79.8106	-172.076	26.9703	-98.7547	-172	36.5526	-120.973	-197.186	7.5389	-87.6682	-203.612	-20.3169	-95.6433	-197.673	-24.441	-62.3078	-218.173	2.76563	-86.1257	-217.086	-21.7481	-86.6707	-211.815	-27.6286	-56.8718	-232.611	20.2388	-66.4036	-239.569	24.9675	-87.0678	-240.073	33.2525	-103.82	-211.541	24.5787	-35.5386	-209.254	22.0496	-10.5658	-183.378	21.4478	-25.6777	
45	0.375	-174.654	-9.82664	-25.0693	-175.993	-29.7469	-53.1795	-186.448	-34.3824	-71.5847	-203.177	-36.0188	-86.8344	-173.413	23.1661	-80.8063	-170.684	28.6746	-102.105	-170.368	37.3393	-121.22	-197.696	7.56976	-91.1751	-204.751	-20.8352	-93.1839	-198.839	-24.1201	-63.8129	-213.744	5.83488	-85.0428	-215.094	-19.8947	-87.0636	-209.846	-25.0538	-55.9054	-234.555	22.724	-70.592	-240.414	25.1276	-84.9183	-241.231	33.5239	-99.0839	-215.674	26.1598	-35.1987	-210.077	24.2025	-8.3936	-185.844	21.6623	-23.7748	
46	0.383333	-172.79	-7.82223	-28.0544	-174.187	-30.1088	-53.0431	-186.057	-33.1353	-73.4545	-208.821	-30.4033	-86.4659	-173.484	24.7426	-79.9539	-172.793	30.693	-99.2005	-174.072	39.4719	-120.88	-196.514	10.3431	-92.1319	-201.947	-20.1366	-95.505	-199.679	-22.8038	-65.6245	-220.205	8.19107	-84.3325	-214.699	-19.4905	-87.4216	-212.699	-25.781	-59.1152	-235.232	24.7543	-70.9302	-236.642	26.4475	-82.4145	-241.683	33.4299	-98.9963	-211.731	27.6699	-37.4688	-212.35	24.1784	-9.22133	-185.172	22.4997	-25.0693	
47	0.391667	-172.949	-8.56492	-27.1966	-178.902	-25.6375	-52.9581	-186.517	-33.1011	-78.1222	-207.502	-33.0815	-90.9412	-173.231	27.5833	-83.0333	-170.47	31.0924	-99.4748	-168.633	41.7787	-120.456	-198.72	14.3478	-89.5726	-206.246	-14.8964	-98.2571	-199.249	-21.9016	-66.8618	-219.443	8.03223	-87.1018	-216.023	-16.6226	-87.3947	-212.272	-23.781	-58.6339	-232.692	25.5618	-68.0094	-238.891	29.6011	-84.9262	-242.137	38.2951	-101.742	-213.151	27.311	-34.6923	-209.027	27.6137	-12.126	-184.435	25.0703	-25.1537	
48	0.4	-174.514	-7.59452	-24.8687	-179.9	-25.4704	-52.3354	-187.108	-32.6747	-77.8946	-209.882	-27.7679	-89.4711	-173.268	27.9288	-81.2594	-172.718	34.5144	-100.898	-170.504	43.614	-119.824	-200.812	15.7605	-89.9045	-203.784	-14.0667	-98.6893	-198.476	-20.2264	-67.1703	-216.187	12.1263	-83.4941	-221.263	-16.0911	-86.0602	-209.527	-19.6098	-58.6472	-235.671	29.5989	-70.1177	-238.108	33.965	-87.1447	-240.716	41.0409	-98.3357	-213.639	30.9368	-34.4728	-210.473	28.3242	-13.2542	-188.107	26.2855	-24.1639	
49	0.408333	-172.85	-9.33267	-29.9581	-180.973	-24.8809	-53.181	-190.363	-30.212	-76.0392	-210.928	-28.5134	-92.4098	-173.722	28.1044	-84.2515	-170.905	33.876	-104.41	-168.372	41.9736	-121.12	-200.425	16.1041	-92.0179	-208.876	-11.1534	-98.5581	-205.811	-17.9629	-64.819	-219.865	14.5079	-85.3046	-220.753	-13.947	-86.2348	-216.163	-20.7163	-59.8041	-230.178	29.6096	-64.5314	-234.837	34.8437	-83.5759	-242.81	47.0831	-97.5063	-210.28	33.8204	-37.0858	-206.203	27.6926	-11.5268	-184.506	25.6243	-26.3125	
50	0.416667	-174.963	-10.7562	-25.3484	-182.962	-26.829	-54.5572	-194.012	-30.9487	-74.4601	-212.55	-31.3346	-93.1362	-172.299	22.5426	-81.2234	-173.707	32.7913	-104.273	-167.879	38.2989	-121.001	-202.228	16.0804	-90.5689	-213.187	-10.5663	-97.8043	-210.996	-18.8928	-67.5333	-218.952	17.6422	-82.8331	-226.752	-11.5074	-84.6666	-218.029	-17.8925	-57.4917	-232.428	34.6524	-67.2628	-238.279	39.5608	-79.9506	-238.736	48.4666	-94.7412	-208.002	34.4018	-34.4686	-205.888	32.5147	-11.3224	-182.883	25.9997	-26.9151	
51	0.425	-176.174	-12.6385	-25.3674	-184.71	-31.5746	-52.5674	-198.252	-31.794	-72.8337	-218.432	-29.3928	-92.227	-174.346	21.3383	-84.5015	-172.991	26.4134	-105.836	-170.52	34.8688	-126.443	-202.697	15.2578	-90.0954	-214.012	-9.46466	-99.6653	-212.841	-17.8088	-62.7985	-218.259	17.1055	-83.2128	-226.552	-9.81097	-84.4267	-224.128	-17.1168	-58.9971	-232.71	37.404	-62.8121	-236.841	42.5601	-82.9958	-238.146	48.5897	-98.3497	-204.501	34.4399	-36.5836	-204.62	33.0627	-10.4444	-178.552	24.422	-28.586	
52	0.433333	-178.822	-9.12984	-28.1146	-187.871	-28.6281	-49.5241	-201.465	-32.9545	-77.6931	-221.123	-29.3606	-89.2293	-178.134	19.0758	-85.1069	-177.212	22.3567	-106.773	-175.672	28.112	-129.228	-208.089	13.8353	-93.3601	-219.124	-10.8999	-97.7295	-213.67	-20.7972	-65.5959	-224.187	19.6115	-79.7421	-230.546	-8.01437	-82.9033	-225.425	-16.1172	-55.8697	-232.718	38.6286	-63.9541	-237.936	43.1521	-83.2231	-243.009	53.8527	-98.4793	-203.777	34.4033	-38.6326	-201.436	36.1394	-8.78943	-177.739	23.9917	-32.1624	
53	0.441667	-177.243	-10.9975	-26.43	-189.667	-29.4879	-53.8559	-203.929	-34.9445	-74.7364	-222.571	-31.035	-84.8901	-179.252	15.7382	-86.6785	-179.139	16.7104	-110.366	-177.537	18.7591	-129.048	-206.569	9.49419	-93.5591	-223.562	-14.8333	-93.0446	-217.926	-20.1334	-62.1786	-221.876	15.4828	-82.7146	-234.111	-7.26469	-80.878	-225.823	-18.0167	-57.6116	-229.78	38.2427	-65.1466	-236.87	41.6084	-83.252	-242.271	50.2715	-97.0562	-203.71	38.7429	-35.6804	-197.762	37.3187	-12.8598	-176.004	23.6041	-34.4559	
